External Loads File
version=1
nRows=79
nColumns=13
Range=5.000000e-03-10 seconds
endheader
time 	forceRightX 	forceRightY 	forceRightZ 	pointRightX 	pointRightY 	pointRightZ 	forceLeftX 	forceLeftY 	forceLeftZ 	pointLeftX 	pointLeftY 	pointLeftZ 		
0.005000 17.778018 65.278393 -0.000000 0.311552 0.468504 -0.162927 15.307728 103.806961 -0.000000 0.102269 0.184216 -0.398419
0.010000 17.656660 64.987693 -0.000000 0.311537 0.468512 -0.162932 15.571137 104.472246 -0.000000 0.102270 0.184235 -0.398427
0.015000 17.588121 64.757039 -0.000000 0.311543 0.468512 -0.162927 15.808294 105.109469 -0.000000 0.102280 0.184234 -0.398427
0.020000 17.579858 64.606702 -0.000000 0.311536 0.468520 -0.162916 16.003748 105.679184 -0.000000 0.102261 0.184234 -0.398419
0.025000 17.572201 64.550369 -0.000000 0.311479 0.468752 -0.162852 16.075734 106.146820 -0.000000 0.102276 0.184206 -0.398426
0.030000 17.610583 64.557015 -0.000000 0.311462 0.468778 -0.162846 16.158857 106.490706 -0.000000 0.102280 0.184201 -0.398431
0.035000 17.625557 64.610322 -0.000000 0.311461 0.468796 -0.162832 16.210630 106.724840 -0.000000 0.102298 0.184205 -0.398419
0.040000 17.565300 64.672107 -0.000000 0.311446 0.468807 -0.162840 16.205000 106.827740 -0.000000 0.102298 0.184190 -0.398431
0.045000 17.388963 64.702677 -0.000000 0.311429 0.468816 -0.162843 16.133887 106.792949 -0.000000 0.102308 0.184206 -0.398430
0.050000 17.079829 64.676504 -0.000000 0.311429 0.468831 -0.162835 16.029727 106.675168 -0.000000 0.102309 0.184208 -0.398435
0.055000 16.647540 64.585013 -0.000000 0.311422 0.468827 -0.162841 15.934752 106.563071 -0.000000 0.102323 0.184186 -0.398431
0.060000 16.144327 64.435876 -0.000000 0.311409 0.468837 -0.162841 15.892268 106.521536 -0.000000 0.102329 0.184181 -0.398445
0.065000 15.641266 64.251332 -0.000000 0.311398 0.468844 -0.162844 15.903284 106.559859 -0.000000 0.102327 0.184183 -0.398436
0.070000 15.203780 64.046929 -0.000000 0.311387 0.468842 -0.162834 15.926392 106.644385 -0.000000 0.102339 0.184169 -0.398450
0.075000 14.890703 63.820030 -0.000000 0.311372 0.468847 -0.162826 15.954008 106.755957 -0.000000 0.102353 0.184165 -0.398448
0.080000 14.734417 63.571341 -0.000000 0.311371 0.468841 -0.162833 16.021406 106.913536 -0.000000 0.102348 0.184169 -0.398440
0.085000 14.711300 63.324264 -0.000000 0.311364 0.468844 -0.162823 16.118240 107.130047 -0.000000 0.102356 0.184148 -0.398450
0.090000 14.795834 63.103490 -0.000000 0.311361 0.468863 -0.162824 16.243058 107.389689 -0.000000 0.102356 0.184147 -0.398454
0.095000 14.954375 62.934432 -0.000000 0.311341 0.468849 -0.162826 16.389042 107.695329 -0.000000 0.102353 0.184154 -0.398451
0.100000 15.162499 62.850358 -0.000000 0.311339 0.468860 -0.162824 16.546145 108.056623 -0.000000 0.102360 0.184128 -0.398446
0.105000 15.426289 62.876309 -0.000000 0.311333 0.468858 -0.162826 16.720353 108.440938 -0.000000 0.102354 0.184133 -0.398453
0.110000 15.724458 63.015395 -0.000000 0.311322 0.468869 -0.162822 16.860179 108.789779 -0.000000 0.102356 0.184116 -0.398459
0.115000 16.043450 63.227065 -0.000000 0.311316 0.468873 -0.162821 16.945785 109.033514 -0.000000 0.102352 0.184128 -0.398458
0.120000 16.327123 63.444193 -0.000000 0.311303 0.468888 -0.162814 16.922234 109.129782 -0.000000 0.102364 0.184108 -0.398461
0.125000 16.547327 63.579122 -0.000000 0.311305 0.468875 -0.162812 16.832429 109.081092 -0.000000 0.102366 0.184110 -0.398451
0.130000 16.658816 63.576079 -0.000000 0.311299 0.468905 -0.162810 16.700386 108.943988 -0.000000 0.102372 0.184094 -0.398451
0.135000 16.676098 63.422175 -0.000000 0.311298 0.468912 -0.162809 16.584679 108.747455 -0.000000 0.102380 0.184078 -0.398457
0.140000 16.624133 63.151804 -0.000000 0.311289 0.468928 -0.162808 16.478119 108.476970 -0.000000 0.102387 0.184078 -0.398456
0.145000 16.537281 62.815285 -0.000000 0.311290 0.468937 -0.162821 16.371284 108.122347 -0.000000 0.102393 0.184060 -0.398467
0.150000 16.442694 62.464799 -0.000000 0.311274 0.468946 -0.162819 16.267889 107.718898 -0.000000 0.102399 0.184054 -0.398460
0.155000 16.357961 62.147990 -0.000000 0.311263 0.468963 -0.162825 16.166535 107.319362 -0.000000 0.102407 0.184008 -0.398466
0.160000 16.303141 61.900506 -0.000000 0.311245 0.468986 -0.162826 16.057898 106.950839 -0.000000 0.102437 0.184004 -0.398458
0.165000 16.293191 61.746695 -0.000000 0.311234 0.469009 -0.162823 15.908016 106.603421 -0.000000 0.102457 0.183976 -0.398461
0.170000 16.338936 61.690720 -0.000000 0.311221 0.469017 -0.162812 15.687101 106.246059 -0.000000 0.102477 0.183956 -0.398452
0.175000 16.424970 61.711760 -0.000000 0.311199 0.469051 -0.162821 15.385174 105.880009 -0.000000 0.102515 0.183940 -0.398463
0.180000 16.534974 61.764203 -0.000000 0.311163 0.469052 -0.162809 15.068274 105.551897 -0.000000 0.102555 0.183923 -0.398461
0.185000 16.634592 61.802751 -0.000000 0.311137 0.469087 -0.162817 14.783422 105.299666 -0.000000 0.102602 0.183904 -0.398467
0.190000 16.700312 61.793386 -0.000000 0.311097 0.469124 -0.162829 14.553603 105.101647 -0.000000 0.102630 0.183889 -0.398472
0.195000 16.705980 61.729524 -0.000000 0.311053 0.469149 -0.162830 14.370640 104.930113 -0.000000 0.102682 0.183835 -0.398470
0.200000 16.654933 61.618968 -0.000000 0.311018 0.469177 -0.162834 14.275754 104.799415 -0.000000 0.102744 0.183821 -0.398477
0.205000 16.542064 61.479886 -0.000000 0.310965 0.469211 -0.162829 14.279045 104.758574 -0.000000 0.102804 0.183784 -0.398486
0.210000 16.392768 61.334692 -0.000000 0.310917 0.469254 -0.162825 14.390034 104.837748 -0.000000 0.102853 0.183734 -0.398484
0.215000 16.240211 61.222845 -0.000000 0.310860 0.469332 -0.162831 14.565474 105.016063 -0.000000 0.102915 0.183712 -0.398480
0.220000 16.127977 61.175725 -0.000000 0.310805 0.469384 -0.162826 14.744509 105.202051 -0.000000 0.102973 0.183683 -0.398492
0.225000 16.068021 61.201494 -0.000000 0.310751 0.469427 -0.162829 14.847774 105.292000 -0.000000 0.103039 0.183644 -0.398499
0.230000 16.058212 61.293481 -0.000000 0.310700 0.469491 -0.162832 14.864897 105.258655 -0.000000 0.103095 0.183600 -0.398506
0.235000 16.096405 61.450356 -0.000000 0.310632 0.469522 -0.162834 14.850115 105.155989 -0.000000 0.103159 0.183561 -0.398505
0.240000 16.179041 61.670100 -0.000000 0.310574 0.469580 -0.162837 14.839283 105.036657 -0.000000 0.103224 0.183514 -0.398503
0.245000 16.300966 61.934273 -0.000000 0.310509 0.469644 -0.162839 14.839315 104.927795 -0.000000 0.103277 0.183462 -0.398513
0.250000 16.451073 62.215708 -0.000000 0.310456 0.469688 -0.162840 14.874937 104.881611 -0.000000 0.103334 0.183430 -0.398516
0.255000 16.600938 62.492767 -0.000000 0.310412 0.469714 -0.162852 14.975570 104.976317 -0.000000 0.103402 0.183375 -0.398525
0.260000 16.722684 62.741189 -0.000000 0.310362 0.469782 -0.162860 15.165971 105.257722 -0.000000 0.103476 0.183320 -0.398528
0.265000 16.810246 62.931664 -0.000000 0.310307 0.469828 -0.162846 15.470265 105.705348 -0.000000 0.103527 0.183262 -0.398518
0.270000 16.860839 63.049748 -0.000000 0.310269 0.469873 -0.162849 15.854688 106.228734 -0.000000 0.103581 0.183221 -0.398519
0.275000 16.873613 63.095494 -0.000000 0.310224 0.469919 -0.162839 16.230985 106.682958 -0.000000 0.103634 0.183174 -0.398512
0.280000 16.853688 63.066409 -0.000000 0.310174 0.469954 -0.162854 16.526338 106.945724 -0.000000 0.103697 0.183148 -0.398511
0.285000 16.795845 62.956865 -0.000000 0.310136 0.470008 -0.162841 16.702341 106.993197 -0.000000 0.103753 0.183090 -0.398520
0.290000 16.710568 62.759762 -0.000000 0.310089 0.470030 -0.162850 16.768896 106.855732 -0.000000 0.103801 0.183066 -0.398511
0.295000 16.590941 62.481747 -0.000000 0.310053 0.470065 -0.162846 16.691304 106.555967 -0.000000 0.103839 0.183017 -0.398509
0.300000 16.440316 62.138470 -0.000000 0.310011 0.470097 -0.162841 16.455912 106.115251 -0.000000 0.103882 0.182979 -0.398504
0.305000 16.266370 61.762821 -0.000000 0.309968 0.470135 -0.162851 16.080880 105.594221 -0.000000 0.103940 0.182943 -0.398497
0.310000 16.094520 61.402029 -0.000000 0.309923 0.470178 -0.162858 15.620261 105.061911 -0.000000 0.103985 0.182905 -0.398503
0.315000 15.946958 61.102711 -0.000000 0.309880 0.470232 -0.162859 15.117473 104.551887 -0.000000 0.104039 0.182872 -0.398497
0.320000 15.834901 60.889272 -0.000000 0.309836 0.470275 -0.162858 14.610693 104.056156 -0.000000 0.104082 0.182822 -0.398472
0.325000 15.746458 60.766116 -0.000000 0.309791 0.470319 -0.162859 14.107281 103.544444 -0.000000 0.104136 0.182762 -0.398484
0.330000 15.680525 60.722804 -0.000000 0.309754 0.470389 -0.162877 13.621815 102.993372 -0.000000 0.104171 0.182735 -0.398479
0.335000 15.632612 60.751206 -0.000000 0.309683 0.470421 -0.162883 13.163455 102.443059 -0.000000 0.104222 0.182698 -0.398469
0.340000 15.625444 60.844745 -0.000000 0.309644 0.470464 -0.162886 12.784481 101.975733 -0.000000 0.104270 0.182644 -0.398472
0.345000 15.675172 60.999391 -0.000000 0.309595 0.470505 -0.162892 12.491762 101.638216 -0.000000 0.104319 0.182618 -0.398471
0.350000 15.785609 61.201653 -0.000000 0.309531 0.470533 -0.162889 12.257009 101.421856 -0.000000 0.104350 0.182577 -0.398486
0.355000 15.945218 61.432578 -0.000000 0.309475 0.470562 -0.162893 12.064524 101.325614 -0.000000 0.104402 0.182517 -0.398484
0.360000 16.149158 61.675799 -0.000000 0.309424 0.470592 -0.162895 11.949134 101.372457 -0.000000 0.104445 0.182480 -0.398484
0.365000 16.374409 61.929045 -0.000000 0.309376 0.470637 -0.162892 11.921351 101.574028 -0.000000 0.104490 0.182419 -0.398492
0.370000 16.612426 62.188529 -0.000000 0.309320 0.470666 -0.162889 12.002747 101.899636 -0.000000 0.104524 0.182374 -0.398504
0.375000 16.838466 62.442439 -0.000000 0.309276 0.470700 -0.162893 12.174030 102.286975 -0.000000 0.104556 0.182340 -0.398498
0.380000 17.011669 62.665368 -0.000000 0.309235 0.470729 -0.162879 12.388967 102.672134 -0.000000 0.104596 0.182286 -0.398490
0.385000 17.097102 62.830450 -0.000000 0.309198 0.470799 -0.162886 12.618762 103.029438 -0.000000 0.104640 0.182249 -0.398495
0.390000 17.093685 62.924193 -0.000000 0.309155 0.470826 -0.162889 12.862596 103.356661 -0.000000 0.104666 0.182222 -0.398503
0.395000 17.001759 62.949881 -0.000000 0.309114 0.470869 -0.162891 13.063027 103.627686 -0.000000 0.104706 0.182172 -0.398497
